<svg xmlns="http://www.w3.org/2000/svg" id="Layer_1" data-name="Layer 1" viewBox="0 0 371.8 47.82"><defs><style>.cls-1{fill:#fff}.cls-2{fill:#07b2b4}</style></defs><g id="layer1"><g id="g4271"><path id="path2094" d="M141.27 47.73c-.88-.22-1.84-1.15-2.11-2.05-.2-.66-.27-5.84-.27-19.64 0-17.39.03-18.8.4-19.53.22-.44.7-.94 1.07-1.12.89-.44 4.18-.58 5.42-.23l.97.27.15 8.4c.08 4.62.12 14.15.08 21.18l-.07 12.78-2.6.03c-1.43.02-2.8-.02-3.05-.08Z" class="cls-1"/><path id="path2092" d="m45.44 46.98-1.31-.1.07-10.45c.08-11.6 0-11.01 1.7-13.68 2.57-4.07 8.37-6.31 14.69-5.67 6.46.65 10.62 3.66 12.07 8.73.4 1.4.44 2.32.44 11.33v9.8l-3.39.03c-2.59.02-3.15-.42-3.4-.68-.17-.18-.12-.97-.13-3.57 0-1.36-.02-3.23-.09-5.76-.26-9-.27-9.17-.8-10.08-1.16-1.99-3.56-2.97-6.67-2.73-2.45.19-3.63.67-4.82 1.94-1.65 1.76-1.74 2.35-1.74 11.03 0 6.82-.03 7.5-.42 8.22-.81 1.51-2.38 1.93-6.21 1.65Z" class="cls-1"/><path id="path2088" d="M.15 45.83c1.16-9.98 6.95-29.11 11.89-39.3 1.63-3.37 2.97-4.93 5.03-5.88 1.29-.6 1.64-.66 3.8-.65 2.1.01 2.53.08 3.78.65 2.16.98 3.43 2.47 5.14 6.07 3.96 8.33 7.9 20.26 10.53 31.93.38 1.69 1.34 7.39 1.35 7.97v.51h-5.09c-6.01 0-6.25-.06-7.4-1.85-1.54-2.4-4.76-5.42-6.58-6.18-1.02-.43-2.42-.43-3.42-.01-.96.4-3.55 2.45-4.68 3.7-.46.51-1.22 1.5-1.68 2.2-1.37 2.07-1.63 2.14-7.67 2.14H0zm17.5-13.18c2.58-1.72 3.82-1.75 6.16-.15 2.21 1.52 2.42 1.6 3.19 1.28 1.34-.55 1.38-1.13.31-4.42-.46-1.41-.73-2.64-.65-2.91.08-.26 1.2-1.54 2.49-2.86s2.35-2.56 2.35-2.76c0-.72-.46-1.53-1-1.78-.44-.2-1.08-.14-3.04.26-3.29.68-3.31.67-4.33-2.72-.79-2.61-1.42-3.62-2.24-3.62s-1.28.77-2.16 3.39c-.86 2.57-1.37 3.4-2.09 3.39-.22 0-1.26-.2-2.32-.45-1.49-.34-2.18-.47-2.65-.39-.65 0-1.19.72-1.38 1.21-.24.68.37 1.48 2.3 3.45 1.29 1.32 2.41 2.6 2.5 2.85.1.28-.16 1.44-.68 3.08-.93 2.92-.92 3.6.08 4.14.8.43 1.19.31 3.17-1.01Z" class="cls-1"/><path id="path2084" d="M115.74 47.57c-3.02-.51-6.28-2.29-8.84-4.85-1.93-1.93-2.74-3.29-3.55-5.98-.6-2.01-.65-6.3-.09-8.38 1.37-5.11 4.95-8.68 10.72-10.7 4.77-1.67 11.28-.47 15.63 2.87 2.28 1.76 4.04 4.41 5.03 7.6.42 1.36.52 2.18.51 4.18-.02 3.45-.69 5.73-2.53 8.54-3.32 5.08-10.22 7.83-16.88 6.71Zm6.14-7.37c2.22-.88 3.87-2.61 4.57-4.78.66-2.05.59-4.97-.15-6.63-1.42-3.17-5.23-5.31-8.44-4.74-3.6.63-6.18 3.23-6.74 6.77-.24 1.53.08 4.18.65 5.36 1.87 3.86 6.2 5.59 10.12 4.03Z" class="cls-1"/><path id="path2082" d="M87.82 47.57c-3.28-.59-6.07-2.01-8.37-4.28-5.11-5.03-5.61-14.54-1.07-20.51 1.96-2.58 4.74-4.3 8.51-5.29 2.43-.64 6.52-.7 9.01-.14 2.05.46 4.55 1.59 5.34 2.41l.59.62-1.24 1.97c-.68 1.08-1.3 2.27-1.38 2.64s-.23.67-.34.67-.69-.25-1.31-.56c-2.73-1.37-6.22-1.6-8.91-.58-3.66 1.39-5.78 5.52-4.96 9.69.36 1.81.94 2.95 2.16 4.2 2.4 2.47 6.43 3.03 10.97 1.51 1.14-.38 2.1-.69 2.15-.69s.15.28.23.62c.18.73 2.22 4.17 2.72 4.58.19.16.34.36.34.45 0 .31-3.5 1.8-5.31 2.27-2.09.54-7.19.78-9.13.44Z" class="cls-1"/></g></g><path id="path2092-2" d="m230.96 45.56-1.24-.09.07-9.88c.08-10.97 0-10.41 1.61-12.94 2.43-3.85 7.92-5.96 13.9-5.36 6.11.61 10.04 3.46 11.42 8.26.38 1.33.41 2.19.41 10.71v9.27l-3.2.03c-2.45.02-2.98-.39-3.21-.64-.16-.17-.11-.91-.12-3.38 0-1.29-.02-3.05-.09-5.45-.25-8.51-.26-8.68-.76-9.54-1.09-1.88-3.36-2.81-6.3-2.58-2.32.18-3.43.63-4.56 1.83-1.56 1.67-1.65 2.22-1.65 10.43 0 6.45-.03 7.09-.4 7.77-.76 1.43-2.25 1.82-5.87 1.56Z" class="cls-2" data-name="path2092"/><path id="path2092-3" d="m263.87 45.56-1.24-.09.07-9.88c.08-10.97 0-10.41 1.61-12.94 2.43-3.85 7.92-5.96 13.9-5.36 6.11.61 10.04 3.46 11.42 8.26.38 1.33.41 2.19.41 10.71v9.27l-3.2.03c-2.45.02-2.98-.39-3.21-.64-.16-.17-.11-.91-.12-3.38 0-1.29-.02-3.05-.09-5.45-.25-8.51-.26-8.68-.76-9.54-1.09-1.88-3.36-2.81-6.3-2.58-2.32.18-3.43.63-4.56 1.83-1.56 1.67-1.65 2.22-1.65 10.43 0 6.45-.03 7.09-.4 7.77-.76 1.43-2.25 1.82-5.87 1.56Z" class="cls-2" data-name="path2092"/><path id="path2084-2" d="M207.06 46.12c-2.85-.48-5.94-2.17-8.36-4.59-1.83-1.82-2.59-3.11-3.36-5.66-.57-1.9-.61-5.96-.08-7.92 1.3-4.84 4.68-8.21 10.13-10.12 4.51-1.58 10.67-.44 14.78 2.72 2.16 1.66 3.82 4.17 4.76 7.19.4 1.28.49 2.06.48 3.95-.02 3.27-.65 5.42-2.39 8.07-3.14 4.81-9.67 7.4-15.96 6.35Zm5.81-6.98c2.1-.84 3.66-2.46 4.32-4.52.62-1.94.56-4.7-.14-6.27-1.34-3-4.94-5.02-7.98-4.49-3.41.6-5.85 3.05-6.38 6.4-.23 1.44.08 3.95.61 5.07 1.77 3.65 5.86 5.28 9.57 3.81" class="cls-2" data-name="path2084"/><path id="path2082-2" d="M336.82 46.12c-3.11-.56-5.74-1.9-7.92-4.05-4.83-4.76-5.3-13.76-1.01-19.4 1.85-2.44 4.48-4.07 8.05-5.01 2.3-.6 6.16-.66 8.52-.13 1.94.44 4.3 1.5 5.05 2.28l.56.58-1.17 1.86c-.64 1.02-1.23 2.15-1.31 2.49-.08.35-.22.63-.32.63s-.66-.24-1.24-.53c-2.58-1.3-5.89-1.51-8.43-.55-3.46 1.31-5.46 5.22-4.69 9.17.34 1.71.89 2.79 2.05 3.98 2.27 2.34 6.09 2.86 10.37 1.43 1.08-.36 1.99-.66 2.03-.66s.14.26.22.59c.17.69 2.1 3.94 2.57 4.33.18.15.32.34.32.42 0 .29-3.31 1.71-5.03 2.15-1.98.51-6.8.74-8.64.41Z" class="cls-2" data-name="path2082"/><path d="M308.05 46.22c-2.95 0-5.5-.6-7.64-1.81s-3.79-2.93-4.94-5.16-1.72-4.87-1.72-7.93.57-5.6 1.71-7.85 2.75-4 4.84-5.26 4.54-1.89 7.36-1.89c1.9 0 3.67.3 5.31.91a12.2 12.2 0 0 1 4.33 2.73c1.24 1.22 2.21 2.74 2.91 4.57q1.05 2.745 1.05 6.48v2.18h-24.33v-4.87h20.52l-3.63 1.3q0-2.25-.69-3.93c-.46-1.11-1.14-1.98-2.05-2.59s-2.03-.92-3.36-.92-2.49.31-3.43.93-1.65 1.46-2.14 2.53c-.48 1.06-.73 2.28-.73 3.64v3.45c0 1.68.28 3.08.84 4.22s1.35 1.99 2.36 2.56 2.19.85 3.54.85c.92 0 1.74-.13 2.49-.39.74-.26 1.38-.64 1.9-1.15.53-.51.93-1.14 1.21-1.88l7.05 1.32c-.47 1.59-1.28 2.98-2.44 4.18s-2.6 2.13-4.34 2.79-3.74.98-6 .98ZM174.44 46.17c-3.42 0-6.48-.78-9.18-2.33s-4.84-3.81-6.4-6.76-2.34-6.52-2.34-10.7.79-7.78 2.36-10.74 3.71-5.22 6.42-6.77 5.76-2.33 9.15-2.33c2.19 0 4.24.31 6.13.92s3.57 1.51 5.04 2.68 2.67 2.61 3.6 4.31 1.54 3.64 1.84 5.82h-8.01c-.17-1.07-.5-2.02-1-2.84a7.7 7.7 0 0 0-1.84-2.1 7.8 7.8 0 0 0-2.53-1.32c-.95-.3-1.98-.45-3.08-.45-2 0-3.76.5-5.27 1.5s-2.69 2.46-3.52 4.37q-1.26 2.865-1.26 6.96c0 4.095.42 5.12 1.27 7.02s2.02 3.33 3.52 4.3 3.25 1.45 5.23 1.45c1.11 0 2.13-.15 3.07-.45s1.79-.74 2.54-1.32 1.37-1.28 1.87-2.11.83-1.77 1.02-2.82h8.01q-.315 2.7-1.59 5.16c-.85 1.64-1.99 3.11-3.41 4.4-1.42 1.3-3.1 2.31-5.05 3.06-1.95.74-4.15 1.11-6.58 1.11ZM371 16.68v5.93h-17.18v-5.93zm-13.19-6.89h7.77v27.38c0 .92.2 1.59.61 2.03s1.08.66 2.03.66c.29 0 .71-.04 1.24-.12.54-.08.94-.15 1.22-.22l1.11 5.83q-1.29.39-2.58.54c-.86.1-1.67.16-2.45.16-2.9 0-5.12-.71-6.66-2.12q-2.31-2.13-2.31-6.09V9.79Z" class="cls-2"/></svg>